<?xml version="1.0" encoding="UTF-8" standalone="no"?>
<svg
   xmlns:dc="http://purl.org/dc/elements/1.1/"
   xmlns:cc="http://creativecommons.org/ns#"
   xmlns:rdf="http://www.w3.org/1999/02/22-rdf-syntax-ns#"
   xmlns:svg="http://www.w3.org/2000/svg"
   xmlns="http://www.w3.org/2000/svg"
   xmlns:sodipodi="http://sodipodi.sourceforge.net/DTD/sodipodi-0.dtd"
   xmlns:inkscape="http://www.inkscape.org/namespaces/inkscape"
   width="23.999989"
   height="21.8365"
   version="1.1"
   id="svg12"
   sodipodi:docname="error.svg"
   inkscape:version="0.92.3 (2405546, 2018-03-11)">
  <metadata
     id="metadata18">
    <rdf:RDF>
      <cc:Work
         rdf:about="">
        <dc:format>image/svg+xml</dc:format>
        <dc:type
           rdf:resource="http://purl.org/dc/dcmitype/StillImage" />
        <dc:title></dc:title>
      </cc:Work>
    </rdf:RDF>
  </metadata>
  <defs
     id="defs16" />
  <sodipodi:namedview
     pagecolor="#ffffff"
     bordercolor="#666666"
     borderopacity="1"
     objecttolerance="10"
     gridtolerance="10"
     guidetolerance="10"
     inkscape:pageopacity="0"
     inkscape:pageshadow="2"
     inkscape:window-width="1920"
     inkscape:window-height="1016"
     id="namedview14"
     showgrid="false"
     inkscape:zoom="10.807345"
     inkscape:cx="30.134588"
     inkscape:cy="10.9185"
     inkscape:window-x="0"
     inkscape:window-y="27"
     inkscape:window-maximized="1"
     inkscape:current-layer="svg12"
     fit-margin-top="0"
     fit-margin-left="0"
     fit-margin-right="0"
     fit-margin-bottom="0" />
  <path
     d="m 23.710774,18.4365 -9.747,-17.304 c -0.831,-1.51 -3.098,-1.51 -3.93,0 l -9.7449995,17.304 c -0.831,1.51 0.226,3.4 1.964,3.4 H 21.672774 c 1.813,-0.076 2.87,-1.89 2.04,-3.4 z"
     id="path2"
     inkscape:connector-curvature="0"
     style="fill:#c80000" />
  <path
     d="m 11.998774,2.2665 9.748,17.303 H 2.2517745 Z"
     id="path4"
     inkscape:connector-curvature="0"
     style="fill:#ffffff" />
  <g
     transform="matrix(0.05313,0,0,0.05313,-0.0012255,-1.0825)"
     id="g10"
     style="fill:#c80000">
    <path
       d="m 196.013,212.359 11.378,75.378 c 1.422,8.533 8.533,15.644 18.489,15.644 8.533,0 17.067,-7.111 18.489,-15.644 l 11.378,-75.378 c 2.844,-18.489 -11.378,-34.133 -29.867,-34.133 -18.49,-0.001 -31.29,15.644 -29.867,34.133 z"
       id="path6"
       inkscape:connector-curvature="0" />
    <circle
       cx="225.879"
       cy="336.09201"
       r="17.066999"
       id="circle8" />
  </g>
</svg>
