<svg xmlns="http://www.w3.org/2000/svg" height="24" width="24">
  <path d="M5.625 12c0-1.19.328-2.303.897-3.257V4.698H2.476A11.91 11.91 0 000 12c0 2.676.87 5.217 2.476 7.302h4.046v-4.045A6.336 6.336 0 015.625 12z" fill="#fbbd00"/>
  <path d="M12 18.375l-2.813 2.813L12 24c2.676 0 5.217-.87 7.302-2.476v-4.041h-4.041a6.374 6.374 0 01-3.261.892z" fill="#0f9d58"/>
  <path d="M6.522 15.257l-4.046 4.045c.318.413.664.809 1.039 1.183A11.922 11.922 0 0012 24v-5.625a6.378 6.378 0 01-5.478-3.118z" fill="#31aa52"/>
  <path d="M24 12c0-.73-.066-1.462-.197-2.174l-.105-.576H12v5.625h5.693a6.346 6.346 0 01-2.432 2.608l4.041 4.041c.413-.318.809-.664 1.183-1.039A11.922 11.922 0 0024 12z" fill="#3c79e6"/>
  <path d="M16.508 7.492l.497.497 3.977-3.977-.497-.497A11.921 11.921 0 0012 0L9.188 2.813 12 5.624c1.703 0 3.304.663 4.508 1.867z" fill="#cf2d48"/>
  <path d="M12 5.625V0a11.922 11.922 0 00-8.485 3.515c-.375.374-.721.77-1.039 1.183l4.046 4.045A6.378 6.378 0 0112 5.625z" fill="#eb4132"/>
</svg>
